{"title":"X-Men First Class 2011R5 LiNE {NO RARS] XVID IMAGiNE","uid":6525758,"size":1808298512,"categoryP":"video","categoryS":"movies","magnet":"?xt=urn:btih:080eb0392ceea8a6089266e2f3f056da30b9ce4f&amp;dn=X-Men+First+Class+2011R5+LiNE+%7BNO+RARS%5D+XVID+IMAGiNE&amp;tr=udp%3A%2F%2Ftracker.openbittorrent.com%3A80&amp;tr=udp%3A%2F%2Fopen.demonii.com%3A1337&amp;tr=udp%3A%2F%2Ftracker.coppersurfer.tk%3A6969&amp;tr=udp%3A%2F%2Fexodus.desync.com%3A6969","seeders":0,"leechers":1,"uploader":"BDSMers","files":-1,"time":1310153118,"description":" X-Men First Class 2011 R5 LiNE READNFO XViD - IMAGiNE\n********************************************************************************************************************\n\nRipper ...........: IMAGiNE                                      \nIMDB Rating.......: 8.1/10                             \nVideo Codec.......: XVID                                        \n Release Date......: 07/07/11\nAudio Codec.......: MP3                                         \n Theatre Date......: 03/06/11\nAudio Bitrate.....: 128                                          Runtime.......: 2h 06mn\nSubtitles.........: ENGLISH WHEN NEEDED                          Language..........: ENGLISH\nResolution......: 720 x 288                                      \nIMDb URL..........: http://www.imdb.com/title/tt1270798/\n\n\n[color=yellow]DETAILS:[/color]\n\nVideo\nID                               : 0\nFormat                           : MPEG-4 Visual\nFormat profile                   : Advanced Simple@L5\nFormat settings, BVOP            : 2\nFormat settings, QPel            : No\nFormat settings, GMC             : No warppoints\nFormat settings, Matrix          : Default (MPEG)\nMuxing mode                      : Packed bitstream\nCodec ID                         : XVID\nCodec ID/Hint                    : XviD\nDuration                         : 2h 6mn\nBit rate                         : 1 771 Kbps\nWidth                            : 720 pixels\nHeight                           : 288 pixels\nDisplay aspect ratio             : 2.500\nFrame rate                       : 25.000 fps\nColor space                      : YUV\nChroma subsampling               : 4:2:0\nBit depth                        : 8 bits\nScan type                        : Progressive\nCompression mode                 : Lossy\nBits/(Pixel*Frame)               : 0.342\nStream size                      : 1.56 GiB (93%)\nWriting library                  : XviD 61\n\nAudio\nID                               : 1\nFormat                           : MPEG Audio\nFormat version                   : Version 1\nFormat profile                   : Layer 3\nMode                             : Joint stereo\nMode extension                   : MS Stereo\nCodec ID                         : 55\nCodec ID/Hint                    : MP3\nDuration                         : 2h 6mn\nBit rate mode                    : Constant\nBit rate                         : 128 Kbps\nChannel(s)                       : 2 channels\nSampling rate                    : 44.1 KHz\nCompression mode                 : Lossy\nStream size                      : 116 MiB (7%)\nAlignment                        : Split accross interleaves\nInterleave, duration             : 40 ms (1.00 video frame)\nWriting library                  : LAME3.98r","torrent":{"xt":"urn:btih:080eb0392ceea8a6089266e2f3f056da30b9ce4f","amp;dn":"X-Men+First+Class+2011R5+LiNE+%7BNO+RARS%5D+XVID+IMAGiNE","amp;tr":["udp%3A%2F%2Ftracker.openbittorrent.com%3A80","udp%3A%2F%2Fopen.demonii.com%3A1337","udp%3A%2F%2Ftracker.coppersurfer.tk%3A6969","udp%3A%2F%2Fexodus.desync.com%3A6969"],"infoHash":"080eb0392ceea8a6089266e2f3f056da30b9ce4f","infoHashBuffer":{"type":"Buffer","data":[8,14,176,57,44,238,168,166,8,146,102,226,243,240,86,218,48,185,206,79]},"announce":[],"urlList":[]}}